<?xml version="1.0" encoding="UTF-8"?><svg id="Layer_4" xmlns="http://www.w3.org/2000/svg" viewBox="0 0 32 32"><defs><style>.cls-1{fill:#009fe3;}.cls-1,.cls-2{stroke-width:0px;}.cls-2{fill:#feffff;}</style></defs><rect class="cls-1" x="3" y="3" width="26" height="26" rx="1.68" ry="1.68"/><path class="cls-2" d="m19.71,13.54l-5.54,5.35c-.45.43-.38,1.17.13,1.51l5.57,3.76c.81.55,1.91.09,2.08-.87.7-3.86,1.38-7.88,2.1-12.5.13-.86-.71-1.56-1.53-1.24-3.79,1.46-12.12,4.99-15.93,6.62-.66.28-.59,1.23.1,1.42l2.65.73c.98.27,2.04.1,2.89-.47l7-4.73c.29-.22.69.17.49.41Z"/></svg>