<?xml version="1.0" encoding="UTF-8"?><svg id="Layer_4" xmlns="http://www.w3.org/2000/svg" viewBox="0 0 32 32"><defs><style>.cls-1,.cls-2,.cls-3,.cls-4{stroke-width:0px;}.cls-2{fill:#25f4ee;}.cls-3{fill:#fff;}.cls-4{fill:#ff2f5b;}</style></defs><rect class="cls-1" x="3" y="3" width="26" height="26" rx="1.68" ry="1.68"/><path class="cls-4" d="m13.01,16.41c-1.55,0-2.82,1.26-2.82,2.82,0,1,.52,1.87,1.31,2.37-.28-.44-.45-.95-.45-1.51,0-1.55,1.26-2.82,2.82-2.82.11,0,.62.04.73.05v-3.62c-.24-.03-.48-.04-.73-.04-.04,0-.09,0-.13,0v2.8c-.11-.01-.62-.05-.73-.05Z"/><path class="cls-4" d="m21.48,9.93c-.92-1.22-1.14-2.74-1.18-3.14v-.07h-.72c.21.92.72,2.33,1.9,3.22Z"/><path class="cls-4" d="m24.05,11.51v2.83c-1.92,0-3.43-.56-4.61-1.41v6.3c0,3.54-2.88,6.43-6.43,6.43-1.55,0-2.98-.55-4.09-1.48,1.18,1.42,2.96,2.33,4.95,2.33,3.54,0,6.43-2.88,6.43-6.43v-6.3c1.17.85,2.68,1.41,4.61,1.41v-3.61c-.31,0-.59-.03-.86-.08Z"/><path class="cls-2" d="m24.05,11.51v-.78c-1.1,0-1.93-.33-2.57-.81.56.74,1.38,1.37,2.57,1.58Z"/><path class="cls-2" d="m13.87,22.91c1.55,0,2.82-1.26,2.82-2.82V6.71h2.89c-.08-.36-.12-.64-.14-.78v-.07h-3.61v13.38c0,1.55-1.26,2.82-2.82,2.82-.56,0-1.07-.17-1.51-.45.5.78,1.37,1.31,2.37,1.31Z"/><path class="cls-2" d="m13.74,13.67v-.82c-.24-.03-.48-.04-.73-.04-3.54,0-6.43,2.88-6.43,6.43,0,1.99.91,3.77,2.33,4.95-.92-1.11-1.48-2.54-1.48-4.1,0-3.5,2.81-6.35,6.3-6.42Z"/><path class="cls-3" d="m19.44,19.23v-6.3c1.17.85,2.68,1.41,4.61,1.41v-2.83c-1.19-.21-2.01-.84-2.57-1.58-1.18-.89-1.69-2.3-1.9-3.22h-2.89v13.38c0,1.55-1.26,2.82-2.82,2.82-1,0-1.87-.52-2.37-1.31-.78-.5-1.31-1.37-1.31-2.37,0-1.55,1.26-2.82,2.82-2.82.11,0,.62.04.73.05v-2.8c-3.49.07-6.3,2.92-6.3,6.42,0,1.55.56,2.98,1.48,4.1,1.11.92,2.54,1.48,4.09,1.48,3.54,0,6.43-2.88,6.43-6.43Z"/></svg>