<?xml version="1.0" encoding="UTF-8"?><svg id="Layer_4" xmlns="http://www.w3.org/2000/svg" viewBox="0 0 32 32"><defs><style>.cls-1{fill:#fff;}.cls-1,.cls-2{stroke-width:0px;}.cls-2{fill:#1bd741;}</style></defs><rect class="cls-2" x="3" y="3" width="26" height="26" rx="1.68" ry="1.68"/><path class="cls-1" d="m16,25.24c-1.59,0-3.14-.41-4.51-1.18l-4.73,1.17,1.49-4.2c-.97-1.49-1.48-3.22-1.48-5.03,0-5.1,4.15-9.24,9.24-9.24s9.24,4.15,9.24,9.24-4.15,9.24-9.24,9.24Zm-4.27-2.78l.27.16c1.2.73,2.59,1.12,4.01,1.12,4.27,0,7.74-3.47,7.74-7.74s-3.47-7.74-7.74-7.74-7.74,3.47-7.74,7.74c0,1.63.49,3.18,1.43,4.49l.23.32-.82,2.31,2.63-.65Z"/><path class="cls-1" d="m14.57,14.25s.06-.12.04-.19c-.25-.77-.56-1.52-.92-2.23-.26-.05-.5-.06-.72-.05-.24.02-.46.1-.64.25-.45.38-1.21,1.31-.65,2.88.76,2.14,3.56,4.87,6.23,5.26,2.28.33,2.57-1.59,2.6-2.07,0-.07-.03-.13-.08-.17-.64-.41-1.39-.7-2.14-.96-.06-.02-.12,0-.16.04-.15.18-.56.65-.93,1.13-.02.03-.06.05-.1.04-.36-.1-2.32-.73-3.34-2.86-.02-.03-.02-.07,0-.1.11-.14.45-.59.8-.97Z"/></svg>