<?xml version="1.0" encoding="UTF-8"?>
<svg version="1.1" xmlns="http://www.w3.org/2000/svg" width="1303" height="2000">
<path d="M0 0 C429.99 0 859.98 0 1303 0 C1303 660 1303 1320 1303 2000 C873.01 2000 443.02 2000 0 2000 C0 1340 0 680 0 0 Z " fill="#FAFAFA" transform="translate(0,0)"/>
<path d="M0 0 C178.86 0 357.72 0 542 0 C536.68609072 6.19956082 531.49643054 11.90268496 525.3046875 17.1875 C520.82409098 21.08905606 516.66118676 25.26301749 512.5 29.5 C508.45051536 33.62324574 504.41641052 37.700117 500.03125 41.46875 C495.44821339 45.41187392 491.23659911 49.69110398 487 54 C485.48172394 55.54418521 483.96091265 57.08588206 482.4375 58.625 C481.77621094 59.29789063 481.11492187 59.97078125 480.43359375 60.6640625 C479.06790657 61.97494682 477.67800008 63.26467662 476.2156086 64.46672916 C472.63592362 67.42671369 469.72100064 70.16886612 467.24777222 74.11973572 C463.40264962 79.79308087 458.90411234 84.69631771 452.05309772 86.51755381 C439.54735921 88.82948425 426.41166519 88.05542681 413.76043272 87.85704994 C408.20102902 87.78758143 402.64189981 87.81136223 397.08218384 87.82348633 C387.46385162 87.83185304 377.8472636 87.78190129 368.22937012 87.69168091 C354.32404137 87.56132767 340.41955108 87.51994586 326.5136776 87.49987304 C303.94967833 87.46490435 281.38668373 87.35869987 258.82324219 87.20703125 C236.91248374 87.0599206 215.00197416 86.94666206 193.09082031 86.87890625 C192.41462335 86.87680183 191.73842638 86.87469741 191.0417386 86.87252922 C184.25067078 86.85143167 177.45960105 86.83101883 170.66852965 86.81110748 C113.7781862 86.64424147 56.88957706 86.34871959 0 86 C0 57.62 0 29.24 0 0 Z " fill="#246A96" transform="translate(0,79)"/>
<path d="M0 0 C1.29134611 -0.00597315 2.58269223 -0.01194629 3.91317004 -0.01810044 C5.3546074 -0.00954069 6.79604315 -0.00070388 8.2374773 0.00837994 C9.76211944 0.0070725 11.28676093 0.00444721 12.8113988 0.00061244 C17.01188723 -0.00611664 21.2121475 0.00593325 25.41260684 0.02094662 C29.93815883 0.03386795 34.46369733 0.0295203 38.98926258 0.0272398 C46.83371704 0.02566459 54.6780968 0.03509965 62.52253246 0.05195332 C73.86434293 0.07630522 85.20611718 0.08414468 96.54795096 0.08791729 C114.9480457 0.09448776 133.34810061 0.11446508 151.74817371 0.14282513 C169.62512481 0.17035028 187.50206509 0.19159141 205.37903309 0.20434856 C206.48044629 0.20513673 207.58185948 0.20592491 208.71664884 0.20673696 C214.24195916 0.21065199 219.76726956 0.21444313 225.29258001 0.21817267 C271.1511043 0.24928714 317.00955494 0.30460021 362.86804676 0.36914349 C362.86804676 31.71914349 362.86804676 63.06914349 362.86804676 95.36914349 C207.76804676 95.36914349 52.66804676 95.36914349 -107.13195324 95.36914349 C-100.38090513 87.49292069 -100.38090513 87.49292069 -97.46789074 84.79101849 C-96.82698498 84.19329632 -96.18607922 83.59557415 -95.52575207 82.97973919 C-94.52644665 82.05874432 -94.52644665 82.05874432 -93.50695324 81.11914349 C-92.80401134 80.4658305 -92.10106945 79.81251751 -91.37682629 79.13940716 C-89.29945826 77.21131674 -87.21694849 75.28898044 -85.13195324 73.36914349 C-84.57104992 72.85239056 -84.0101466 72.33563763 -83.43224621 71.80322552 C-80.97729902 69.54418049 -78.51696669 67.29112874 -76.05382824 65.04101849 C-72.92551324 62.18036681 -69.80829374 59.30802698 -66.69445324 56.43164349 C-66.15481945 55.9332597 -65.61518566 55.43487591 -65.05919933 54.92138958 C-63.41662295 53.40414839 -61.77425158 51.88668563 -60.13195324 50.36914349 C-53.31569022 44.07067374 -46.49365867 37.77889087 -39.64904308 31.51123333 C-34.90643987 27.16656733 -30.17998021 22.80453892 -25.45617199 18.43945599 C-23.14837481 16.30696064 -20.83820048 14.17707745 -18.52648449 12.04883099 C-17.93730236 11.50605511 -17.34812023 10.96327923 -16.7410841 10.4040556 C-15.61344254 9.36531721 -14.48537319 8.32704296 -13.35680676 7.2893095 C-10.44973451 4.65796235 -10.44973451 4.65796235 -7.84771985 1.73620909 C-5.28579081 -0.30505052 -3.2428927 -0.00329898 0 0 Z " fill="#246A96" transform="translate(940.1319532394409,1830.630856513977)"/>
<path d="M0 0 C97.68 0 195.36 0 296 0 C294.35 1.65 292.7 3.3 291 5 C289.39924129 6.61148434 287.79899413 8.22347696 286.19921875 9.8359375 C284.36205135 11.68236349 282.52480955 13.52871546 280.6875 15.375 C279.77548828 16.29539063 278.86347656 17.21578125 277.92382812 18.1640625 C276.57514648 19.51757812 276.57514648 19.51757812 275.19921875 20.8984375 C274.39315186 21.70974121 273.58708496 22.52104492 272.7565918 23.35693359 C270.63840411 25.38788745 268.50605106 27.26151943 266.26365662 29.14494324 C263.400539 31.62907094 260.94494556 34.16254364 258.57650757 37.11973572 C252.60736627 44.37040263 247.38516073 49.68874265 237.7413311 50.77266121 C232.34898277 51.04440598 226.99656253 50.9582441 221.6015625 50.81640625 C219.17559104 50.81188494 216.74959773 50.8144423 214.32363892 50.82348633 C208.45795802 50.82757892 202.59651717 50.75875754 196.73180211 50.65648377 C189.89940246 50.54136522 183.06757501 50.51809888 176.23434162 50.49987304 C164.05214901 50.46498481 151.87168529 50.35886928 139.69042969 50.20703125 C127.86825113 50.05982371 116.04654469 49.94674051 104.22363281 49.87890625 C103.49303548 49.87470267 102.76243814 49.8704991 102.00970149 49.86616814 C98.34395305 49.84528524 94.67820131 49.82506647 91.01244736 49.80517769 C60.67345252 49.63971464 30.33763668 49.34498712 0 49 C0 32.83 0 16.66 0 0 Z " fill="#FEBD59" transform="translate(0,165)"/>
<path d="M0 0 C1.65 0 3.3 0 5 0 C5.66 3.63 6.32 7.26 7 11 C7.66 11 8.32 11 9 11 C9.144375 10.113125 9.28875 9.22625 9.4375 8.3125 C9.91019978 5.52882354 10.43070185 2.76516243 11 0 C12.65 0 14.3 0 16 0 C16.99 2.97 17.98 5.94 19 9 C20.49403054 6.01193893 21.79310745 3.10343799 23 0 C24.32 0 25.64 0 27 0 C25.75971762 6.17222879 24.10396411 12.06682122 22 18 C20.35 18 18.7 18 17 18 C15.53173403 14.57404607 14.74613857 11.73069283 14 8 C12.68 11.3 11.36 14.6 10 18 C8.35 18 6.7 18 5 18 C4.16320723 15.37605694 3.33043058 12.75095616 2.5 10.125 C2.26152344 9.37863281 2.02304688 8.63226563 1.77734375 7.86328125 C0 2.2265625 0 2.2265625 0 0 Z " fill="#F1F6F8" transform="translate(146,129)"/>
<path d="M0 0 C10.19694397 -0.48556876 10.19694397 -0.48556876 13.6875 1.625 C15.40455522 4.73205231 15.58338557 6.49968658 15 10 C13.4375 12.4375 13.4375 12.4375 11 14 C7.25 13.75 7.25 13.75 4 13 C4 14.98 4 16.96 4 19 C2.68 19 1.36 19 0 19 C0 12.73 0 6.46 0 0 Z " fill="#F2F6F9" transform="translate(100,98)"/>
<path d="M0 0 C2.375 1 2.375 1 4 3 C4.56659452 5.77515685 4.5609375 8.22422681 4 11 C1.73077752 13.90460477 0.15004537 13.97856495 -3.5 14.5 C-7 14 -7 14 -9.5 11.875 C-11 9 -11 9 -11 5.875 C-9.04853819 0.26454728 -5.68784988 -0.71098124 0 0 Z " fill="#F0F5F8" transform="translate(129,98)"/>
<path d="M0 0 C2.4375 1 2.4375 1 4 2 C3.67 2.99 3.34 3.98 3 5 C0.03 5 -2.94 5 -6 5 C-7.01540112 9.10223585 -7.01540112 9.10223585 -6 13 C-2.97065509 13.65772428 -2.97065509 13.65772428 0 14 C0 12.35 0 10.7 0 9 C1.32 9 2.64 9 4 9 C4 11.31 4 13.62 4 16 C0.33755697 18.34396354 -2.72394153 18.52512999 -7 18 C-9.91963173 16.01216563 -11.61102978 14.5685303 -12.48046875 11.0625 C-12.75815509 7.09984094 -12.23092162 5.33588599 -9.9375 2 C-6.28060335 -0.48980198 -4.34579086 -0.55310065 0 0 Z " fill="#F3F7F9" transform="translate(76,129)"/>
<path d="M0 0 C7.4457732 -0.36618557 7.4457732 -0.36618557 9.75 1.15625 C11.49814698 3.73476679 11.29627565 5.60552328 11.1875 8.6875 C11.16042969 9.68136719 11.13335937 10.67523438 11.10546875 11.69921875 C11.07066406 12.45847656 11.03585938 13.21773437 11 14 C9.02090602 14.02686553 7.04171029 14.04633375 5.0625 14.0625 C3.96035156 14.07410156 2.85820313 14.08570312 1.72265625 14.09765625 C-1 14 -1 14 -2 13 C-2.125 10 -2.125 10 -2 7 C-1 6 -1 6 2.5625 5.9375 C3.696875 5.958125 4.83125 5.97875 6 6 C5.67 5.34 5.34 4.68 5 4 C3.02 4 1.04 4 -1 4 C-0.67 2.68 -0.34 1.36 0 0 Z " fill="#DBE6EE" transform="translate(83,98)"/>
<path d="M0 0 C1.32 0 2.64 0 4 0 C4.33 2.97 4.66 5.94 5 9 C5.99 9 6.98 9 8 9 C8.33 6.03 8.66 3.06 9 0 C10.65 0 12.3 0 14 0 C14 4.62 14 9.24 14 14 C4.8203125 14.1953125 4.8203125 14.1953125 2 14 C0 12 0 12 -0.1953125 9.1796875 C-0.17210938 8.08914062 -0.14890625 6.99859375 -0.125 5.875 C-0.10695313 4.77929688 -0.08890625 3.68359375 -0.0703125 2.5546875 C-0.04710938 1.71164063 -0.02390625 0.86859375 0 0 Z " fill="#EEF3F7" transform="translate(119,133)"/>
<path d="M0 0 C1.32 0 2.64 0 4 0 C4.33 2.97 4.66 5.94 5 9 C5.99 9 6.98 9 8 9 C8.33 6.03 8.66 3.06 9 0 C10.65 0 12.3 0 14 0 C14 4.62 14 9.24 14 14 C4.8203125 14.1953125 4.8203125 14.1953125 2 14 C0 12 0 12 -0.1953125 9.1796875 C-0.17210938 8.08914062 -0.14890625 6.99859375 -0.125 5.875 C-0.10695313 4.77929688 -0.08890625 3.68359375 -0.0703125 2.5546875 C-0.04710938 1.71164063 -0.02390625 0.86859375 0 0 Z " fill="#EEF3F7" transform="translate(86,133)"/>
<path d="M0 0 C1.7109375 1.16015625 1.7109375 1.16015625 3 3 C3.29296875 5.69921875 3.29296875 5.69921875 3.1875 8.6875 C3.16042969 9.68136719 3.13335937 10.67523438 3.10546875 11.69921875 C3.07066406 12.45847656 3.03585938 13.21773437 3 14 C1.20866022 14.05391993 -0.58313899 14.09275571 -2.375 14.125 C-3.37273437 14.14820313 -4.37046875 14.17140625 -5.3984375 14.1953125 C-8 14 -8 14 -10 12 C-10.1875 9.4375 -10.1875 9.4375 -10 7 C-9 6 -9 6 -7.15234375 5.90234375 C-5.1015625 5.93489583 -3.05078125 5.96744792 -1 6 C-1.33 5.34 -1.66 4.68 -2 4 C-4.31 4 -6.62 4 -9 4 C-9 3.01 -9 2.02 -9 1 C-5.95016004 -0.52491998 -3.3576631 -0.23562548 0 0 Z " fill="#E5EDF2" transform="translate(187,133)"/>
<path d="M0 0 C0.99 0.66 1.98 1.32 3 2 C3.29296875 4.8203125 3.29296875 4.8203125 3.1875 8.125 C3.16042969 9.22070312 3.13335937 10.31640625 3.10546875 11.4453125 C3.07066406 12.28835937 3.03585938 13.13140625 3 14 C1.20866022 14.05391993 -0.58313899 14.09275571 -2.375 14.125 C-3.37273437 14.14820312 -4.37046875 14.17140625 -5.3984375 14.1953125 C-8 14 -8 14 -10 12 C-9.44444444 7.44444444 -9.44444444 7.44444444 -8 6 C-5.66702567 5.95907063 -3.33294775 5.95758277 -1 6 C-1.33 5.34 -1.66 4.68 -2 4 C-3.98 4 -5.96 4 -8 4 C-8.33 3.01 -8.66 2.02 -9 1 C-5.98131566 -0.50934217 -3.32702771 -0.17510672 0 0 Z " fill="#E5EDF2" transform="translate(161,98)"/>
<path d="M0 0 C10.625 -0.25 10.625 -0.25 14 2 C14.29296875 4.8203125 14.29296875 4.8203125 14.1875 8.125 C14.16042969 9.22070312 14.13335937 10.31640625 14.10546875 11.4453125 C14.07066406 12.28835937 14.03585938 13.13140625 14 14 C12.68 14 11.36 14 10 14 C9.67 11.03 9.34 8.06 9 5 C7.68 5.33 6.36 5.66 5 6 C4.67 8.64 4.34 11.28 4 14 C2.68 14 1.36 14 0 14 C0 9.38 0 4.76 0 0 Z " fill="#F3F6F9" transform="translate(170,98)"/>
<path d="M0 0 C1.32 0 2.64 0 4 0 C4 4.62 4 9.24 4 14 C6.64 14 9.28 14 12 14 C12 15.32 12 16.64 12 18 C8.04 18 4.08 18 0 18 C0 12.06 0 6.12 0 0 Z " fill="#F9FBFC" transform="translate(65,94)"/>
<path d="M0 0 C2.475 0.495 2.475 0.495 5 1 C7.23167185 0.63143136 7.23167185 0.63143136 9 0 C9 1.32 9 2.64 9 4 C8.360625 4.165 7.72125 4.33 7.0625 4.5 C4.83880759 5.781786 4.83880759 5.781786 4.51171875 7.9140625 C4.2724022 9.93575155 4.13106972 11.96841939 4 14 C2.68 14 1.36 14 0 14 C0 9.38 0 4.76 0 0 Z " fill="#F5F8FA" transform="translate(106,133)"/>
<path d="M0 0 C1.32 0 2.64 0 4 0 C4 6.27 4 12.54 4 19 C2.68 19 1.36 19 0 19 C0 12.73 0 6.46 0 0 Z " fill="#FFFFFF" transform="translate(196,128)"/>
<path d="M0 0 C1.65 0 3.3 0 5 0 C5 4.62 5 9.24 5 14 C3.35 14 1.7 14 0 14 C0 9.38 0 4.76 0 0 Z " fill="#E3ECF1" transform="translate(206,133)"/>
<path d="M0 0 C2.475 0.495 2.475 0.495 5 1 C5.99 0.67 6.98 0.34 8 0 C8 1.32 8 2.64 8 4 C7.01 4.33 6.02 4.66 5 5 C4.67 7.97 4.34 10.94 4 14 C2.68 14 1.36 14 0 14 C0 9.38 0 4.76 0 0 Z " fill="#F9FBFC" transform="translate(139,98)"/>
<path d="M0 0 C2.375 0.75 2.375 0.75 3.375 1.75 C3.44744053 3.76964199 3.45877188 5.79167124 3.4375 7.8125 C3.42847656 8.91722656 3.41945312 10.02195312 3.41015625 11.16015625 C3.39855469 12.01480469 3.38695312 12.86945313 3.375 13.75 C2.055 13.75 0.735 13.75 -0.625 13.75 C-0.65078125 13.12351562 -0.6765625 12.49703125 -0.703125 11.8515625 C-0.75984375 11.03429687 -0.8165625 10.21703125 -0.875 9.375 C-0.92140625 8.56289062 -0.9678125 7.75078125 -1.015625 6.9140625 C-1.4172092 4.56161073 -1.4172092 4.56161073 -3.671875 3.4609375 C-4.31640625 3.22632812 -4.9609375 2.99171875 -5.625 2.75 C-3.73358522 0.26129634 -3.21105313 -0.30581458 0 0 Z " fill="#FAFCFD" transform="translate(180.625,98.25)"/>
<path d="M0 0 C1.67542976 0.28604898 3.34385343 0.61781233 5 1 C4.67 2.65 4.34 4.3 4 6 C2.68 6 1.36 6 0 6 C-0.38218767 4.34385343 -0.71395102 2.67542976 -1 1 C-0.67 0.67 -0.34 0.34 0 0 Z " fill="#2F719B" transform="translate(124,102)"/>
<path d="M0 0 C1.32 0.66 2.64 1.32 4 2 C3.67 3.65 3.34 5.3 3 7 C1.35 6.67 -0.3 6.34 -2 6 C-1.125 1.125 -1.125 1.125 0 0 Z " fill="#32749D" transform="translate(106,101)"/>
<path d="M0 0 C0.99 0.33 1.98 0.66 3 1 C2.67 2.32 2.34 3.64 2 5 C2.99 5.33 3.98 5.66 5 6 C5 6.66 5 7.32 5 8 C3.33388095 8.042721 1.66617115 8.04063832 0 8 C-1 7 -1 7 -1.125 4 C-1 1 -1 1 0 0 Z " fill="#F4F7F9" transform="translate(82,104)"/>
<path d="M0 0 C1.98 0.495 1.98 0.495 4 1 C4 1.99 4 2.98 4 4 C2.35 3.67 0.7 3.34 -1 3 C-0.67 2.01 -0.34 1.02 0 0 Z " fill="#E8EFF4" transform="translate(207,127)"/>
</svg>
